<?xml version="1.0" encoding="UTF-8"?><svg id="_图层_2" xmlns="http://www.w3.org/2000/svg" viewBox="0 0 157.83 157.83"><defs><style>.cls-1{fill:#fff;}.cls-2{fill:none;stroke:#fff;stroke-miterlimit:10;stroke-width:3px;}</style></defs><g id="_图层_1-2"><g><g><circle class="cls-2" cx="78.91" cy="78.91" r="77.41"/><g><path class="cls-2" d="M48.65,126.45c-2.31,2.11-3.35,4.71-3.7,6.02-.66,2.45-.82,5.21-.74,7.9,1.76-1.2,3.11-2.43,4.17-3.6,.35-.39,1.46-1.67,2.37-3.24,2.66-4.59,2.21-9.29,2.64-9.3,.58,0-.76,8.5,3.55,13.64,2.86,3.42,7.37,4.36,10.62,4.64-.83-2.73-2.36-6.22-5.46-9.06-3.78-3.47-8.51-4.72-8.41-4.99,.13-.33,6.38,3.39,11.97,1.68,4.16-1.27,6.68-5.14,8.15-8.17-1.76,.05-4.46,.29-7.57,1.33-3.11,1.04-5.77,2.6-5.96,2.28-.13-.22,1.26-.88,2.18-2.43,1.58-2.66,.56-5.96,.29-6.85-1.03-3.37-3.47-5.21-4.36-5.82-.56,1.63-1.12,3.97-.87,6.7,.4,4.43,2.73,7.84,2.52,7.96-.19,.1-1.19-2.98-3.98-5.16-3.7-2.89-8.38-2.51-9.31-2.43-1.23,.1-3.28,.43-5.6,1.62,1.26,1.16,3.11,2.55,5.6,3.39,5.53,1.85,11.13-.04,11.17,.16,.04,.2-5.41,.21-9.28,3.74Z"/><circle class="cls-2" cx="56.87" cy="126.18" r="3.17"/></g><g><path class="cls-2" d="M83.77,79.6c-.08,4.66-1.98,11.03-4.97,11.32-2.66,.26-5.48-4.36-6.49-8.01-2.12-7.63,2-16.94,5.39-16.98,3.04-.04,6.18,7.38,6.08,13.67Z"/><path class="cls-2" d="M88.47,71.18c3.84,10.35-5.23,24.44-11.46,24.03-4.64-.31-8.52-8.71-8.56-15.6-.04-7.5,4.45-16.78,10.36-16.98,4.3-.15,8.18,4.57,9.67,8.56Z"/></g></g><g><path class="cls-1" d="M15.34,46.34c.44-.83,.9-1.65,1.36-2.46,.19,3.37,.39,6.74,.58,10.11,1.54-.39,3.09-.76,4.65-1.12,.13,1.07,.26,2.15,.38,3.22-2.33,.07-4.66,.14-6.98,.22v-9.97Z"/><path class="cls-1" d="M21.3,36.9c1.88-2.53,3.9-4.9,6.03-7.09,.22,1.53,.44,3.07,.66,4.6-1.58,1.31-3.11,2.7-4.58,4.16,.2,1.5,.41,3,.61,4.5,1.42-1.01,2.88-1.96,4.36-2.88,.21,1.5,.43,3,.64,4.5-1.52,.66-3.03,1.36-4.5,2.09,.25,1.83,.49,3.65,.74,5.48,1.77-.36,3.55-.71,5.34-1.04,.22,1.55,.44,3.09,.66,4.64-2.51,.06-5.02,.13-7.52,.2-.81-6.39-1.63-12.77-2.44-19.16Z"/><path class="cls-1" d="M31.7,31.51c-.93,.68-1.85,1.38-2.76,2.11-.23-1.59-.45-3.18-.68-4.77,2.39-2.37,4.92-4.54,7.56-6.5,.26,1.96,.51,3.92,.77,5.88-.99,.6-1.96,1.23-2.92,1.88,1.17,8.53,2.33,17.07,3.49,25.6-.7,.01-1.39,.03-2.09,.05-1.13-8.09-2.26-16.17-3.39-24.26Z"/><path class="cls-1" d="M36.93,21.55c.65-.46,1.3-.91,1.96-1.34,.23,1.84,.45,3.68,.68,5.52,.26,2.13,.31,4.02,.13,5.62-.17,1.53-.52,2.58-1.05,3.18-.1-.81-.21-1.61-.31-2.42,.31-.59,.51-1.28,.58-2.07,.08-.73,.03-1.75-.14-3.08-.36,.2-.72,.41-1.08,.62-.26-2.01-.51-4.02-.77-6.02Z"/><path class="cls-1" d="M45.44,44c.15,1.36,.38,2.47,.68,3.36,.28,.88,.6,1.54,.96,1.97,.35,.39,.69,.58,1.04,.55,1.47-.13,2.05-1.82,1.72-5.08-.12-1.22-.29-2.11-.5-2.68-.23-.59-.45-1-.68-1.21-.4-.31-.8-.61-1.2-.91-.36-.21-.72-.42-1.07-.63-.71-.3-1.37-.79-1.96-1.48-.57-.65-1.08-1.65-1.52-2.98-.46-1.36-.84-3.24-1.13-5.67-.25-2.13-.33-4.14-.22-6.09,.1-1.94,.38-3.52,.87-4.72,.48-1.24,1.14-2.11,1.96-2.57,.77-.43,1.48-.39,2.1,.11,.66,.52,1.2,1.34,1.62,2.44,.43,1.14,.8,2.45,1.1,3.94,.2,1.02,.34,1.79,.42,2.3,.11,.7,.2,1.43,.27,2.18-.71,.23-1.41,.48-2.11,.73-.5-3.91-1.44-5.56-2.8-4.92-.46,.22-.84,.79-1.12,1.7-.28,.91-.34,2.06-.18,3.45,.22,1.95,.64,3.13,1.25,3.57,.54,.26,1.07,.54,1.61,.83,.37,.21,.74,.43,1.11,.66,.86,.45,1.54,1.05,2.04,1.76,.49,.75,.91,1.79,1.25,3.1,.35,1.35,.63,3.21,.85,5.56,.26,2.76,.33,5.1,.21,6.96-.14,1.83-.38,3.22-.75,4.16-.35,.9-.7,1.49-1.06,1.79-.18,.15-.34,.26-.49,.33-.01,0-.03,0-.04,0-.2,.07-.33,.11-.42,.11-1.43,0-2.63-1.09-3.61-3.14-1-2.09-1.74-5.07-2.21-9.04,.68-.14,1.35-.28,2.03-.41Z"/><path class="cls-1" d="M55.09,12.24c1.73-.59,3.47-1.12,5.23-1.58,.54-.14,1.06,.09,1.56,.69,.5,.69,.93,1.63,1.28,2.83,.37,1.24,.67,2.71,.89,4.42,.22,1.62,.37,3.45,.47,5.47,.22,4.43,.12,8.03-.25,10.77-.39,2.8-1.16,4.23-2.33,4.35-.85,.09-1.71,.19-2.56,.3,.36,5.29,.73,10.58,1.09,15.87-.7,0-1.4,.01-2.1,.02-1.1-14.38-2.19-28.77-3.29-43.15Zm5.87,19.4c.49-.08,.83-.44,1.04-1.1,.2-.66,.32-1.45,.34-2.38,.01-.89-.02-1.99-.1-3.33-.12-2.13-.33-3.75-.64-4.87-.31-1.07-.89-1.52-1.72-1.33-.64,.15-1.27,.31-1.9,.47,.3,4.29,.59,8.59,.89,12.88,.69-.12,1.39-.24,2.09-.35Z"/><path class="cls-1" d="M65.71,9.46c.81-.15,1.63-.28,2.45-.4,.44,12.61,.88,25.21,1.32,37.82,1.71-.06,3.42-.1,5.13-.13,.05,2.85,.09,5.69,.14,8.54-2.36,0-4.72,.01-7.07,.03-.65-15.28-1.31-30.57-1.96-45.85Z"/><path class="cls-1" d="M78.93,8.25c.95,0,1.9,.01,2.85,.05,1.25,15.71,2.3,31.41,3.13,46.99-.76,0-1.52,0-2.28,0-.17-3.22-.34-6.44-.52-9.67-1.27-.02-2.55-.02-3.83-.02-.24,3.23-.46,6.46-.68,9.68-.73,0-1.47,0-2.2,0,.97-15.64,2.14-31.35,3.53-47.03Zm2.63,29.33c-.39-6.24-.81-12.48-1.26-18.72-.52,6.23-1,12.46-1.46,18.7,.91,0,1.81,0,2.72,.02Z"/><path class="cls-1" d="M87.37,8.71c.86,.1,1.73,.21,2.59,.33,1.17,10.95,2.18,21.8,3.05,32.44,.53-10.54,1.06-21.07,1.59-31.6,.75,.16,1.5,.33,2.24,.51-.85,14.98-1.7,29.96-2.54,44.95-.7,0-1.39-.01-2.09-.01-.83-10.8-1.81-21.84-2.96-32.99-.38,10.99-.76,21.98-1.14,32.97-.65,0-1.31,0-1.96,0,.41-15.53,.82-31.06,1.23-46.58Z"/><path class="cls-1" d="M106.58,13.53c.89,.36,1.77,.73,2.65,1.13-.01,14.17-.14,27.83-.35,40.85-.76-.01-1.52-.02-2.28-.03,.06-2.76,.13-5.54,.18-8.35-1.25-.14-2.5-.27-3.76-.39-.49,2.87-.97,5.76-1.45,8.67-.73,0-1.46-.02-2.2-.02,2.26-14.43,4.67-28.42,7.19-41.86Zm.27,26.56c.08-5.49,.15-11.05,.2-16.69-.96,5.33-1.91,10.74-2.84,16.22,.88,.15,1.76,.3,2.64,.47Z"/><path class="cls-1" d="M119.28,26.87c-1-.56-2.01-1.11-3.04-1.62,.25-2.17,.51-4.34,.76-6.51,2.78,1.69,5.47,3.59,8.03,5.69-.25,1.84-.5,3.68-.75,5.53-.96-.65-1.94-1.27-2.92-1.87-1.2,9.19-2.39,18.38-3.59,27.57-.7-.01-1.39-.03-2.09-.04,1.2-9.58,2.4-19.16,3.6-28.75Z"/><path class="cls-1" d="M126.2,25.41c1.58,1.35,3.11,2.78,4.58,4.3,.6,.61,1.04,1.48,1.35,2.53,.3,1.08,.48,2.23,.54,3.45,.06,1.2,0,2.33-.14,3.43-.12,.84-.29,1.62-.52,2.35-.22,.71-.47,1.29-.76,1.73-.29,.44-.6,.73-.93,.86,.43,.65,.65,1.45,.66,2.39,.02,.99-.07,2.13-.25,3.44-.05,.33-.09,.66-.14,.98-.06,.36-.12,.72-.18,1.08-.13,.94-.2,1.74-.21,2.38-.02,.53,.06,.85,.22,.97-.03,.22-.06,.43-.09,.65-.76-.02-1.53-.04-2.29-.06,0-.54,.04-1.17,.1-1.88,.09-.74,.17-1.49,.26-2.24,.1-.76,.2-1.52,.3-2.28,.05-.38,.1-.73,.12-1.07,.01-.15,.03-.41,.05-.8,0-.07,0-.15,0-.22,.01-.42-.06-.83-.21-1.24-.17-.37-.47-.64-.91-.8-.7-.27-1.41-.52-2.13-.78-.53,3.74-1.05,7.48-1.58,11.22-.68-.02-1.36-.03-2.03-.05,1.4-10.11,2.79-20.22,4.19-30.34Zm2.54,15.61c.51,.28,.91,.16,1.2-.33,.29-.57,.51-1.37,.66-2.42,.12-.87,.14-1.69,.04-2.51-.11-.8-.38-1.4-.84-1.78-.79-.65-1.6-1.29-2.42-1.9-.36,2.56-.72,5.11-1.08,7.67,.82,.41,1.63,.84,2.44,1.28Z"/><path class="cls-1" d="M134.82,34.22c.56,.69,1.12,1.39,1.66,2.11-.85,6.57-1.71,13.14-2.56,19.71-.69-.02-1.39-.04-2.08-.06,.99-7.25,1.99-14.51,2.98-21.76Z"/><path class="cls-1" d="M137.54,37.76c1.16,1.61,2.27,3.29,3.32,5.04,.32,.54,.61,1.14,.86,1.78,.26,.66,.46,1.28,.62,1.85,.17,.6,.3,1.14,.39,1.65,.08,.48,.13,.94,.13,1.38,0,.97-.18,1.56-.6,1.94-.42,.37-1.14,.39-2.12-.08-.71-.35-1.43-.69-2.15-1.02-.21,1.94-.42,3.89-.62,5.83-.69-.02-1.39-.04-2.08-.06,.75-6.1,1.5-12.21,2.25-18.31Zm2.38,10.96c.38,.28,.66,.39,.86,.36,.19-.04,.32-.15,.39-.36,.06-.2,.1-.48,.12-.85,.03-.58-.02-1.12-.16-1.65-.14-.52-.48-1.15-1.04-1.84-.43-.53-.86-1.05-1.3-1.57-.17,1.58-.34,3.16-.51,4.73,.55,.38,1.09,.78,1.63,1.17Z"/></g></g></g></svg>