<?xml version="1.0" encoding="UTF-8"?><svg id="_图层_2" xmlns="http://www.w3.org/2000/svg" viewBox="0 0 187.1 187.1"><defs><style>.cls-1{stroke-width:5px;}.cls-1,.cls-2{fill:none;}.cls-1,.cls-2,.cls-3{stroke:#fff;stroke-miterlimit:10;}.cls-2{stroke-width:2px;}.cls-3{fill:#fff;stroke-width:.75px;}</style></defs><g id="_图层_1-2"><g><circle class="cls-1" cx="93.55" cy="93.55" r="91.05"/><g><path class="cls-2" d="M55.45,149.46c-2.72,2.48-3.94,5.54-4.35,7.08-.77,2.88-.96,6.13-.87,9.29,2.06-1.41,3.66-2.86,4.91-4.24,.41-.46,1.72-1.97,2.79-3.82,3.13-5.4,2.6-10.93,3.1-10.94,.68,0-.89,9.99,4.17,16.05,3.36,4.02,8.67,5.13,12.49,5.46-.97-3.21-2.78-7.31-6.42-10.65-4.44-4.08-10.01-5.55-9.89-5.87,.15-.39,7.5,3.98,14.08,1.98,4.89-1.49,7.86-6.05,9.58-9.61-2.07,.05-5.25,.34-8.9,1.56-3.66,1.22-6.79,3.06-7.02,2.68-.16-.26,1.49-1.03,2.57-2.86,1.85-3.13,.66-7.01,.34-8.05-1.22-3.96-4.08-6.13-5.13-6.84-.66,1.92-1.32,4.66-1.03,7.88,.47,5.22,3.21,9.22,2.96,9.36-.22,.12-1.4-3.5-4.68-6.07-4.35-3.4-9.85-2.95-10.95-2.86-1.45,.12-3.86,.51-6.59,1.91,1.48,1.37,3.66,3,6.59,3.98,6.5,2.18,13.09-.05,13.14,.19,.04,.23-6.36,.24-10.91,4.4Z"/><circle class="cls-2" cx="65.12" cy="149.14" r="3.73"/></g><g><path class="cls-3" d="M9.82,104.48c.59-1.06,1.2-2.1,1.83-3.13,.27,4.48,.54,8.96,.81,13.44,2.01-.55,4.03-1.07,6.08-1.58,.16,1.4,.33,2.8,.49,4.2-3.04,.17-6.07,.35-9.09,.54-.04-4.49-.08-8.99-.13-13.48Z"/><path class="cls-3" d="M17.76,92.46c2.5-3.22,5.16-6.23,7.98-9.03,.27,1.97,.55,3.93,.82,5.9-2.08,1.68-4.09,3.45-6.04,5.32,.26,1.94,.52,3.88,.77,5.82,1.87-1.3,3.78-2.54,5.74-3.72,.27,1.92,.54,3.85,.81,5.77-2,.87-3.97,1.79-5.91,2.74,.31,2.36,.63,4.72,.94,7.08,2.31-.52,4.64-1,6.98-1.47,.28,1.98,.55,3.96,.83,5.94-3.28,.15-6.55,.32-9.81,.5-1.04-8.29-2.08-16.57-3.12-24.86Z"/><path class="cls-3" d="M31.46,85.62c-1.23,.87-2.44,1.77-3.63,2.7-.28-2.03-.57-4.07-.85-6.1,3.15-3.02,6.48-5.77,9.95-8.27,.32,2.49,.64,4.99,.96,7.48-1.29,.77-2.57,1.57-3.83,2.41,1.46,10.88,2.92,21.76,4.38,32.63-.91,.04-1.82,.08-2.73,.11-1.41-10.32-2.83-20.64-4.24-30.97Z"/><path class="cls-3" d="M38.38,72.93c.85-.59,1.71-1.16,2.57-1.71,.28,2.33,.57,4.67,.85,7,.33,2.71,.37,5.11,.13,7.13-.24,1.94-.71,3.29-1.4,4.06-.13-1.03-.26-2.05-.39-3.08,.42-.76,.67-1.64,.77-2.64,.1-.92,.06-2.23-.15-3.91-.47,.26-.95,.53-1.42,.8-.32-2.55-.64-5.1-.96-7.65Z"/><path class="cls-3" d="M49.35,101.38c.19,1.72,.48,3.13,.87,4.25,.36,1.12,.77,1.95,1.24,2.48,.45,.49,.9,.72,1.35,.67,1.93-.19,2.7-2.34,2.29-6.47-.15-1.55-.37-2.67-.64-3.38-.29-.75-.58-1.27-.88-1.54-.52-.39-1.05-.77-1.57-1.14-.47-.27-.94-.53-1.4-.78-.93-.37-1.78-.99-2.56-1.86-.74-.83-1.4-2.08-1.97-3.77-.6-1.72-1.08-4.11-1.44-7.2-.32-2.7-.4-5.26-.25-7.73,.14-2.46,.53-4.46,1.17-6,.64-1.57,1.5-2.68,2.58-3.26,1.01-.54,1.93-.5,2.75,.13,.86,.66,1.56,1.7,2.1,3.09,.56,1.44,1.03,3.1,1.41,4.98,.26,1.29,.43,2.26,.54,2.92,.14,.89,.25,1.81,.34,2.76-.93,.3-1.85,.61-2.77,.94-.63-4.95-1.85-7.05-3.63-6.23-.61,.28-1.1,1.01-1.48,2.16-.38,1.16-.46,2.61-.26,4.38,.28,2.48,.81,3.97,1.62,4.52,.7,.33,1.4,.67,2.1,1.03,.48,.27,.97,.54,1.45,.82,1.12,.57,2.01,1.32,2.66,2.21,.64,.95,1.17,2.26,1.61,3.92,.44,1.71,.8,4.06,1.08,7.03,.33,3.5,.4,6.45,.23,8.82-.19,2.33-.52,4.08-1.01,5.28-.46,1.15-.93,1.91-1.4,2.29-.24,.19-.45,.33-.65,.43-.02,0-.04,0-.05,0-.26,.1-.44,.14-.55,.15-1.88,.02-3.45-1.33-4.71-3.92-1.29-2.64-2.24-6.41-2.83-11.45,.89-.19,1.77-.37,2.67-.55Z"/><path class="cls-3" d="M62.17,61.08c2.26-.75,4.54-1.43,6.84-2.01,.71-.18,1.39,.11,2.03,.87,.65,.87,1.21,2.06,1.66,3.58,.48,1.57,.87,3.43,1.15,5.58,.28,2.05,.48,4.35,.6,6.91,.27,5.59,.14,10.14-.37,13.61-.51,3.53-1.53,5.35-3.07,5.51-1.12,.12-2.24,.26-3.35,.4,.45,6.69,.91,13.37,1.36,20.06-.92,.02-1.84,.03-2.76,.05-1.36-18.18-2.73-36.37-4.09-54.56Zm7.59,24.5c.64-.1,1.1-.56,1.37-1.4,.27-.83,.42-1.84,.45-3.01,.02-1.12-.02-2.52-.11-4.21-.15-2.68-.42-4.74-.81-6.15-.4-1.35-1.16-1.91-2.24-1.66-.83,.19-1.66,.39-2.49,.6,.37,5.43,.74,10.85,1.1,16.28,.91-.16,1.82-.31,2.74-.45Z"/><path class="cls-3" d="M76.06,57.55c1.06-.19,2.13-.36,3.2-.52,.55,15.92,1.1,31.83,1.65,47.75,2.24-.08,4.49-.14,6.74-.18,.06,3.59,.12,7.19,.17,10.78-3.11,.01-6.21,.04-9.32,.07-.81-19.3-1.63-38.6-2.44-57.9Z"/><path class="cls-3" d="M93.32,56c1.24,0,2.48,.02,3.73,.06,1.64,19.83,3.03,39.65,4.16,59.32-1,0-2-.01-3.01-.01-.22-4.06-.45-8.13-.69-12.2-1.68-.02-3.35-.03-5.03-.02-.31,4.07-.61,8.15-.9,12.22-.97,0-1.93,0-2.9,0,1.29-19.74,2.84-39.58,4.65-59.37Zm3.45,37.01c-.52-7.87-1.07-15.75-1.66-23.62-.67,7.86-1.31,15.73-1.91,23.6,1.19,0,2.38,0,3.57,.03Z"/><path class="cls-3" d="M104.35,56.59c1.13,.12,2.26,.26,3.38,.43,1.55,13.83,2.91,27.53,4.08,40.97,.66-13.31,1.32-26.61,1.98-39.91,.98,.2,1.96,.42,2.93,.66-1.05,18.93-2.11,37.85-3.16,56.78-.92-.01-1.83-.03-2.75-.04-1.13-13.66-2.45-27.59-3.98-41.68-.48,13.87-.95,27.74-1.43,41.62-.86,0-1.72-.01-2.59-.02,.51-19.6,1.02-39.2,1.53-58.8Z"/><path class="cls-3" d="M129.46,62.72c1.16,.45,2.32,.93,3.47,1.43,.07,17.95-.01,35.25-.19,51.77-1-.03-1.99-.06-2.99-.08,.07-3.5,.13-7.02,.19-10.58-1.64-.19-3.28-.37-4.93-.54-.62,3.63-1.24,7.28-1.85,10.96-.96-.02-1.93-.04-2.89-.06,2.9-18.22,5.98-35.9,9.2-52.9Zm.5,33.62c.07-6.95,.13-14,.16-21.13-1.23,6.74-2.44,13.58-3.62,20.51,1.16,.2,2.31,.4,3.46,.62Z"/><path class="cls-3" d="M146.15,79.69c-1.31-.72-2.64-1.42-3.99-2.08,.32-2.75,.63-5.5,.95-8.25,3.65,2.15,7.18,4.57,10.55,7.24-.31,2.35-.63,4.69-.94,7.04-1.26-.83-2.54-1.62-3.84-2.39-1.49,11.69-2.99,23.38-4.48,35.06-.91-.03-1.83-.07-2.74-.1,1.5-12.17,3-24.35,4.49-36.52Z"/><path class="cls-3" d="M155.2,77.84c2.08,1.72,4.09,3.54,6.04,5.47,.79,.78,1.38,1.88,1.79,3.23,.41,1.38,.65,2.85,.74,4.43,.08,1.54,.03,3-.17,4.41-.15,1.09-.37,2.09-.67,3.03-.28,.92-.61,1.66-.99,2.22-.38,.56-.78,.93-1.21,1.1,.57,.85,.86,1.87,.89,3.08,.03,1.27-.07,2.74-.31,4.43-.06,.42-.12,.84-.17,1.27-.08,.46-.15,.92-.23,1.39-.17,1.21-.26,2.24-.26,3.06-.02,.68,.08,1.1,.3,1.26-.04,.28-.08,.55-.11,.83-1-.05-1.99-.1-2.99-.15,0-.7,.04-1.5,.12-2.41,.11-.96,.22-1.91,.33-2.87,.12-.97,.25-1.95,.37-2.92,.07-.49,.12-.94,.16-1.38,.01-.18,.03-.53,.05-1.03,0-.1,0-.19,0-.29,.01-.54-.08-1.07-.29-1.6-.23-.47-.62-.83-1.2-1.05-.92-.35-1.85-.69-2.79-1.03-.66,4.78-1.32,9.56-1.98,14.34-.89-.04-1.77-.08-2.66-.11,1.75-12.9,3.5-25.8,5.25-38.69Zm3.45,19.96c.67,.36,1.19,.21,1.57-.42,.38-.73,.66-1.75,.85-3.1,.16-1.11,.17-2.18,.03-3.23-.15-1.02-.52-1.79-1.12-2.28-1.04-.83-2.11-1.65-3.18-2.43-.45,3.27-.9,6.53-1.35,9.8,1.08,.54,2.14,1.09,3.2,1.66Z"/><path class="cls-3" d="M166.57,89.05c.75,.88,1.48,1.77,2.2,2.68-1.09,8.51-2.18,17.03-3.27,25.54-.9-.05-1.81-.1-2.72-.14,1.26-9.36,2.52-18.72,3.78-28.08Z"/><path class="cls-3" d="M170.18,93.56c1.54,2.05,3.02,4.19,4.42,6.41,.43,.68,.81,1.46,1.15,2.28,.34,.86,.62,1.66,.83,2.41,.23,.79,.4,1.51,.5,2.18,.1,.65,.16,1.25,.15,1.85-.01,1.31-.26,2.13-.82,2.64-.56,.51-1.5,.54-2.78-.09-.93-.46-1.87-.92-2.82-1.36-.27,2.54-.54,5.09-.81,7.63-.9-.05-1.8-.1-2.71-.15,.96-7.94,1.92-15.87,2.88-23.81Zm3.16,14.25c.5,.36,.87,.51,1.13,.46,.26-.05,.43-.21,.51-.49,.08-.27,.13-.65,.16-1.13,.05-.77-.02-1.49-.2-2.18-.19-.68-.64-1.49-1.37-2.37-.56-.68-1.14-1.35-1.72-2.01-.22,2.06-.44,4.13-.66,6.19,.72,.5,1.44,1.01,2.15,1.53Z"/></g></g></g></svg>